<?xml version="1.0" encoding="utf-8"?>
<!-- Generator: Adobe Illustrator 22.1.0, SVG Export Plug-In . SVG Version: 6.00 Build 0)  -->
<svg version="1.1" id="Calque_1" xmlns="http://www.w3.org/2000/svg" xmlns:xlink="http://www.w3.org/1999/xlink" x="0px" y="0px"
	 viewBox="0 0 841.9 595.3" style="enable-background:new 0 0 841.9 595.3;" xml:space="preserve">
<g>
	<g>
		<polygon points="338.2,239 338.9,419.6 483.2,294.4 387.5,294.4 387.5,183.6 483.2,183.6 338.9,58.3 		"/>
		<polygon points="498.3,196.7 498.3,281.3 547.1,239 		"/>
		<rect x="402.5" y="198.6" width="80.8" height="80.8"/>
	</g>
	<g>
		<path d="M289.8,461.6c-3.5-5.4-10.2-8.4-16.6-8.4c-10.8,0-19.9,9.4-19.9,19.8c0,11.1,9.4,20.2,20.2,20.2c6.4,0,12.8-3.5,16.5-8.7
			h5.3c-4.1,7.9-12.8,13.3-21.8,13.3c-14,0-25-10.8-25-24.8c0-13.5,11.1-24.4,24.6-24.4c4.8,0,9.7,1.3,13.7,4c3,1.9,7,5.5,8.2,9
			H289.8z"/>
		<path d="M356.4,473c0,13.9-11.4,24.8-25.2,24.8c-13.3,0-25.1-10.8-25.1-24.4c0-13.9,11.3-24.8,25.1-24.8
			C344.6,448.6,356.4,459.3,356.4,473z M331.2,453.1c-11.2,0.1-20.4,9.1-20.4,20.3c0,11,9.6,19.8,20.4,19.8c11.2,0,20.4-9,20.4-20.2
			C351.6,462,342.1,453.1,331.2,453.1L331.2,453.1z"/>
		<path d="M408.5,461.6c-3.5-5.4-10.2-8.4-16.6-8.4c-10.8,0-19.9,9.4-19.9,19.8c0,11.1,9.4,20.2,20.2,20.2c6.4,0,12.8-3.5,16.5-8.7
			h5.3c-4.1,7.9-12.8,13.3-21.8,13.3c-14,0-25-10.8-25-24.8c0-13.5,11.1-24.4,24.6-24.4c4.8,0,9.7,1.3,13.7,4c3,1.9,7,5.5,8.2,9
			H408.5z"/>
		<path d="M426.8,449.3h4.8v20.9h24.7v-20.9h4.8V497h-4.8v-22.4h-24.7V497h-4.8V449.3z"/>
		<path d="M475.9,449.3h4.8v43.3h19.7v4.3h-24.5V449.3z"/>
		<path d="M510.9,449.3h26v4.3h-21.3v17.1h20.6v4.3h-20.6v17.5h21.3v4.3h-26V449.3z"/>
		<path d="M566.9,449.3h5.3l20.4,47.6h-5.2l-6.9-16h-22.2l-6.9,16h-5.2L566.9,449.3z M578.7,476.7l-9.1-21.8l-9.3,21.8H578.7z"/>
	</g>
	<g>
		<path d="M275.1,527.1v-19.8h6.1c4.4,0,6.2,2.6,6.2,6s-1.8,5.9-6.2,5.9h-4v7.9H275.1z M277.2,517.4h4c2.3,0,4-1.3,4-4.1
			s-1.3-4.2-4.2-4.2h-3.7V517.4z"/>
		<path d="M307.1,507.3h6c4.4,0,6.2,2.6,6.2,6c0,3.1-1.6,5.7-5.1,5.8l5.5,8h-2.6l-6.3-9.7v-0.1h2.2c2.5,0,3.9-1.5,3.9-4
			c0-2.8-1.3-4.2-4.2-4.2h-3.6v18h-2.1V507.3z"/>
		<path d="M353,517.2c0,5.9-2.3,10.2-7.5,10.2s-7.5-4.3-7.5-10.2c0-5.9,2.3-10.2,7.5-10.2S353,511.4,353,517.2z M340.4,517.2
			c0,5.6,1.7,8.4,5.2,8.4s5.2-2.8,5.2-8.4c0-5.6-1.7-8.4-5.2-8.4S340.4,511.7,340.4,517.2z"/>
		<path d="M372.7,507.3h6.1c5.2,0,7.8,4.2,7.8,9.9c0,5.7-2.6,9.9-7.8,9.9h-6.1V507.3z M374.9,525.3h4c3.4,0,5.5-2.6,5.5-8.1
			c0-5.4-2.1-8.1-5.5-8.1h-4V525.3z"/>
		<path d="M408.1,507.3v14.2c0,2.8,1.5,4.1,3.9,4.1c2.3,0,3.9-1.3,3.9-4.1v-14.2h2.1V522c0,3.6-2.1,5.5-6,5.5c-3.9,0-6-1.9-6-5.5
			v-14.6H408.1z"/>
		<path d="M448.6,514.6c-0.1-2.6-1.4-5.8-4.5-5.8c-3,0-4.6,2.8-4.6,8.4c0,5.3,1.7,8.4,4.6,8.4c2.8,0,4.2-1.9,4.4-5.4h2.1
			c0,4-2.2,7.2-6.7,7.2c-4.5,0-6.7-4.3-6.7-10.2c0-5.9,2.3-10.2,6.9-10.2c4.3,0,6.6,3.6,6.6,7.6H448.6z"/>
		<path d="M468.7,507.3h11.6v2h-4.7v17.8h-2.1v-17.8h-4.7V507.3z"/>
		<path d="M499.4,527.1v-19.8h2.1v19.8H499.4z"/>
		<path d="M536.1,517.2c0,5.9-2.3,10.2-7.5,10.2c-5.2,0-7.5-4.3-7.5-10.2c0-5.9,2.3-10.2,7.5-10.2
			C533.8,507,536.1,511.4,536.1,517.2z M523.5,517.2c0,5.6,1.7,8.4,5.2,8.4s5.2-2.8,5.2-8.4c0-5.6-1.7-8.4-5.2-8.4
			S523.5,511.7,523.5,517.2z"/>
		<path d="M555.8,527.1v-19.8h2.3l8.3,15h0.1v-15h2.1v19.8h-2l-8.5-15.7H558v15.7H555.8z"/>
	</g>
</g>
</svg>
